<svg width="73" height="57" viewBox="0 0 73 57" fill="none" xmlns="http://www.w3.org/2000/svg">
<path d="M14.6364 11.2472C14.6023 10.8892 14.5227 10.5739 14.3977 10.3011C14.2727 10.0227 14.1023 9.78693 13.8864 9.59375C13.6705 9.40057 13.4034 9.25568 13.0852 9.15909C12.767 9.05682 12.3977 9.00568 11.9773 9.00568C11.1364 9.00568 10.358 9.21023 9.64205 9.61932C8.92614 10.0284 8.32102 10.625 7.8267 11.4091C7.33239 12.1875 6.99432 13.1335 6.8125 14.2472C6.63068 15.3665 6.625 16.321 6.79545 17.1108C6.97159 17.9006 7.32386 18.5028 7.85227 18.9176C8.38068 19.3324 9.07955 19.5398 9.94886 19.5398C10.7273 19.5398 11.4148 19.4148 12.0114 19.1648C12.608 18.9091 13.0909 18.5483 13.4602 18.0824C13.8352 17.6165 14.071 17.0682 14.1676 16.4375L14.9432 16.5312H10.6989L11.2102 13.4545H18.7273L18.3438 15.7642C18.0881 17.3267 17.5369 18.6648 16.6903 19.7784C15.8494 20.892 14.7983 21.7472 13.5369 22.3438C12.2813 22.9403 10.9034 23.2386 9.40341 23.2386C7.74432 23.2386 6.34375 22.8778 5.2017 22.1562C4.05966 21.4347 3.24716 20.4062 2.7642 19.071C2.28125 17.7301 2.19034 16.1392 2.49148 14.2983C2.73011 12.8665 3.15341 11.5966 3.76136 10.4886C4.375 9.375 5.125 8.43182 6.01136 7.65909C6.90341 6.88636 7.8892 6.30114 8.96875 5.90341C10.0483 5.50568 11.1705 5.30682 12.3352 5.30682C13.3409 5.30682 14.2557 5.4517 15.0795 5.74148C15.9034 6.03125 16.608 6.44034 17.1932 6.96875C17.7784 7.49716 18.2188 8.125 18.5142 8.85227C18.8153 9.57955 18.946 10.3778 18.9062 11.2472H14.6364ZM25.7308 23.2472C24.3501 23.2472 23.2109 22.9631 22.3132 22.3949C21.4212 21.8267 20.7933 21.0341 20.4297 20.017C20.0661 19 19.995 17.8182 20.2166 16.4716C20.4382 15.1307 20.8956 13.9545 21.5888 12.9432C22.282 11.9318 23.1683 11.1449 24.2479 10.5824C25.3274 10.0199 26.5518 9.73864 27.9212 9.73864C29.2962 9.73864 30.4297 10.0227 31.3217 10.5909C32.2195 11.1591 32.8501 11.9517 33.2138 12.9688C33.5831 13.9858 33.657 15.1705 33.4354 16.5227C33.2138 17.8636 32.7536 19.0398 32.0547 20.0511C31.3558 21.0568 30.4695 21.8409 29.3956 22.4034C28.3217 22.9659 27.1001 23.2472 25.7308 23.2472ZM26.1996 20.1023C26.7109 20.1023 27.1683 19.9489 27.5717 19.642C27.9808 19.3352 28.3246 18.9062 28.603 18.3551C28.8814 17.804 29.0803 17.1648 29.1996 16.4375C29.3189 15.7216 29.3303 15.0938 29.2337 14.554C29.1428 14.0085 28.9496 13.5852 28.6541 13.2841C28.3587 12.9773 27.9581 12.8239 27.4524 12.8239C26.9411 12.8239 26.4808 12.9801 26.0717 13.2926C25.6626 13.5994 25.3189 14.0284 25.0405 14.5795C24.7678 15.125 24.5717 15.7642 24.4524 16.4972C24.3331 17.2131 24.3189 17.8409 24.4098 18.3807C24.5007 18.9205 24.6967 19.3438 24.9979 19.6506C25.299 19.9517 25.6996 20.1023 26.1996 20.1023ZM40.5902 23.2472C39.2095 23.2472 38.0703 22.9631 37.1726 22.3949C36.2805 21.8267 35.6527 21.0341 35.2891 20.017C34.9254 19 34.8544 17.8182 35.076 16.4716C35.2976 15.1307 35.755 13.9545 36.4482 12.9432C37.1413 11.9318 38.0277 11.1449 39.1072 10.5824C40.1868 10.0199 41.4112 9.73864 42.7805 9.73864C44.1555 9.73864 45.2891 10.0227 46.1811 10.5909C47.0788 11.1591 47.7095 11.9517 48.0732 12.9688C48.4425 13.9858 48.5163 15.1705 48.2947 16.5227C48.0732 17.8636 47.6129 19.0398 46.9141 20.0511C46.2152 21.0568 45.3288 21.8409 44.255 22.4034C43.1811 22.9659 41.9595 23.2472 40.5902 23.2472ZM41.0589 20.1023C41.5703 20.1023 42.0277 19.9489 42.4311 19.642C42.8402 19.3352 43.1839 18.9062 43.4624 18.3551C43.7408 17.804 43.9396 17.1648 44.0589 16.4375C44.1783 15.7216 44.1896 15.0938 44.093 14.554C44.0021 14.0085 43.8089 13.5852 43.5135 13.2841C43.218 12.9773 42.8175 12.8239 42.3118 12.8239C41.8004 12.8239 41.3402 12.9801 40.9311 13.2926C40.522 13.5994 40.1783 14.0284 39.8999 14.5795C39.6271 15.125 39.4311 15.7642 39.3118 16.4972C39.1925 17.2131 39.1783 17.8409 39.2692 18.3807C39.3601 18.9205 39.5561 19.3438 39.8572 19.6506C40.1584 19.9517 40.5589 20.1023 41.0589 20.1023ZM54.1115 23.1875C53.1456 23.1875 52.3075 22.9375 51.5973 22.4375C50.8871 21.9375 50.3786 21.1875 50.0717 20.1875C49.7706 19.1875 49.7422 17.946 49.9865 16.4631C50.2422 14.9233 50.6967 13.6562 51.3501 12.6619C52.0036 11.6676 52.7649 10.9318 53.6342 10.4545C54.5092 9.97727 55.4013 9.73864 56.3104 9.73864C56.9979 9.73864 57.5661 9.85795 58.0149 10.0966C58.4695 10.3295 58.8246 10.6307 59.0803 11C59.3359 11.3693 59.5121 11.7528 59.6087 12.1506H59.7024L60.8018 5.54545H64.9695L62.0717 23H57.9467L58.2962 20.8778H58.1683C57.924 21.2812 57.6115 21.6591 57.2308 22.0114C56.8501 22.3636 56.3984 22.6477 55.8757 22.8636C55.3587 23.0795 54.7706 23.1875 54.1115 23.1875ZM56.0803 19.9403C56.5859 19.9403 57.0433 19.7983 57.4524 19.5142C57.8615 19.2244 58.2053 18.8182 58.4837 18.2955C58.7678 17.7727 58.9666 17.1591 59.0803 16.4545C59.1996 15.7386 59.2053 15.1222 59.0973 14.6051C58.9893 14.0881 58.7763 13.6903 58.4581 13.4119C58.1456 13.1335 57.7337 12.9943 57.2223 12.9943C56.7109 12.9943 56.2536 13.1364 55.8501 13.4205C55.4467 13.7045 55.1115 14.1051 54.8445 14.6222C54.5774 15.1392 54.3842 15.75 54.2649 16.4545C54.1513 17.1591 54.1399 17.7727 54.2308 18.2955C54.3274 18.8182 54.5291 19.2244 54.8359 19.5142C55.1484 19.7983 55.5632 19.9403 56.0803 19.9403ZM5.00568 52H0.471591L9.25852 34.5455H14.875L17.8665 52H13.3324L11.4148 38.9432H11.2784L5.00568 52ZM5.55114 45.1307H15.0284L14.483 48.3352H5.00568L5.55114 45.1307ZM18.9531 56.9091L21.9702 38.9091H26.0952L25.7287 41.1506H25.8565C26.0838 40.7528 26.3849 40.3693 26.7599 40C27.1406 39.6307 27.598 39.3295 28.1321 39.0966C28.6662 38.858 29.277 38.7386 29.9645 38.7386C30.8736 38.7386 31.6832 38.9773 32.3935 39.4545C33.1037 39.9318 33.6207 40.6676 33.9446 41.6619C34.2685 42.6562 34.3026 43.9233 34.0469 45.4631C33.8026 46.946 33.3594 48.1875 32.7173 49.1875C32.081 50.1875 31.3253 50.9375 30.4503 51.4375C29.5753 51.9375 28.6577 52.1875 27.6974 52.1875C27.0384 52.1875 26.4815 52.0795 26.027 51.8636C25.5781 51.6477 25.223 51.3636 24.9616 51.0114C24.7003 50.6591 24.5185 50.2812 24.4162 49.8778H24.2969L23.1378 56.9091H18.9531ZM24.9616 45.4545C24.848 46.1591 24.8423 46.7727 24.9446 47.2955C25.0469 47.8182 25.2543 48.2244 25.5668 48.5142C25.8849 48.7983 26.2969 48.9403 26.8026 48.9403C27.3139 48.9403 27.7685 48.7983 28.1662 48.5142C28.5696 48.2244 28.9077 47.8182 29.1804 47.2955C29.4531 46.7727 29.652 46.1591 29.777 45.4545C29.8849 44.75 29.8878 44.1392 29.7855 43.6222C29.6889 43.1051 29.4872 42.7045 29.1804 42.4205C28.8736 42.1364 28.4616 41.9943 27.9446 41.9943C27.4389 41.9943 26.9787 42.1335 26.5639 42.4119C26.1548 42.6903 25.8139 43.0881 25.5412 43.6051C25.2685 44.1222 25.0753 44.7386 24.9616 45.4545ZM34.3516 56.9091L37.3686 38.9091H41.4936L41.1271 41.1506H41.255C41.4822 40.7528 41.7834 40.3693 42.1584 40C42.5391 39.6307 42.9964 39.3295 43.5305 39.0966C44.0646 38.858 44.6754 38.7386 45.3629 38.7386C46.272 38.7386 47.0817 38.9773 47.7919 39.4545C48.5021 39.9318 49.0192 40.6676 49.343 41.6619C49.6669 42.6562 49.701 43.9233 49.4453 45.4631C49.201 46.946 48.7578 48.1875 48.1158 49.1875C47.4794 50.1875 46.7237 50.9375 45.8487 51.4375C44.9737 51.9375 44.0561 52.1875 43.0959 52.1875C42.4368 52.1875 41.88 52.0795 41.4254 51.8636C40.9766 51.6477 40.6214 51.3636 40.3601 51.0114C40.0987 50.6591 39.9169 50.2812 39.8146 49.8778H39.6953L38.5362 56.9091H34.3516ZM40.3601 45.4545C40.2464 46.1591 40.2408 46.7727 40.343 47.2955C40.4453 47.8182 40.6527 48.2244 40.9652 48.5142C41.2834 48.7983 41.6953 48.9403 42.201 48.9403C42.7124 48.9403 43.1669 48.7983 43.5646 48.5142C43.968 48.2244 44.3061 47.8182 44.5788 47.2955C44.8516 46.7727 45.0504 46.1591 45.1754 45.4545C45.2834 44.75 45.2862 44.1392 45.1839 43.6222C45.0874 43.1051 44.8857 42.7045 44.5788 42.4205C44.272 42.1364 43.8601 41.9943 43.343 41.9943C42.8374 41.9943 42.3771 42.1335 41.9624 42.4119C41.5533 42.6903 41.2124 43.0881 40.9396 43.6051C40.6669 44.1222 40.4737 44.7386 40.3601 45.4545ZM57.608 34.5455L54.7102 52H50.5426L53.4403 34.5455H57.608ZM63.4482 52.2472C62.0788 52.2472 60.9425 51.9773 60.0391 51.4375C59.1413 50.892 58.5107 50.1165 58.147 49.1108C57.7834 48.0994 57.718 46.8977 57.951 45.5057C58.1783 44.1534 58.6413 42.9716 59.3402 41.9602C60.0447 40.9432 60.9311 40.1534 61.9993 39.5909C63.0675 39.0227 64.2578 38.7386 65.5703 38.7386C66.5021 38.7386 67.3288 38.8835 68.0504 39.1733C68.772 39.4631 69.3686 39.8949 69.8402 40.4688C70.3118 41.0369 70.6328 41.7358 70.8033 42.5653C70.9737 43.3949 70.968 44.3466 70.7862 45.4205L70.6243 46.4602H59.255L59.6385 44.0398H67.1385C67.2067 43.5966 67.1697 43.2017 67.0277 42.8551C66.8857 42.5085 66.6555 42.2386 66.3374 42.0455C66.0249 41.8466 65.6413 41.7472 65.1868 41.7472C64.7266 41.7472 64.2947 41.8551 63.8913 42.071C63.4936 42.2812 63.1555 42.5653 62.8771 42.9233C62.5987 43.2812 62.4169 43.6847 62.3317 44.1335L61.88 46.6136C61.7891 47.1648 61.8146 47.6364 61.9567 48.0284C62.0987 48.4205 62.343 48.7216 62.6896 48.9318C63.0362 49.1364 63.4822 49.2386 64.0277 49.2386C64.3913 49.2386 64.7322 49.1903 65.0504 49.0938C65.3686 48.9915 65.6527 48.8409 65.9027 48.642C66.1584 48.4375 66.3658 48.1903 66.5249 47.9006L70.326 48.0114C70.0192 48.8693 69.5447 49.6165 68.9027 50.2528C68.2607 50.8835 67.4766 51.375 66.5504 51.7273C65.63 52.0739 64.5959 52.2472 63.4482 52.2472Z" fill="black"/>
<g filter="url(#filter0_f_1_9)">
<ellipse cx="41.5" cy="16.5" rx="7.5" ry="8.5" fill="#8DCF7C"/>
<ellipse cx="41.5" cy="16.5" rx="7.5" ry="8.5" fill="#074113" fill-opacity="0.5"/>
<path d="M41.5 25.5C45.9753 25.5 49.5 21.4099 49.5 16.5C49.5 11.5901 45.9753 7.5 41.5 7.5C37.0247 7.5 33.5 11.5901 33.5 16.5C33.5 21.4099 37.0247 25.5 41.5 25.5Z" stroke="#0BAE4C" stroke-opacity="0.5"/>
</g>
<path d="M37 10.5C37 10.5 41.5 8.5 41.5 16.5M46 22.5C46 22.5 41.5 24.5 41.5 16.5M41.5 16.5C48.5 16.5 46 10.5 46 10.5M41.5 16.5C34.5 16.5 37 22.5 37 22.5M41.5 16.5C46 10.5 41.5 8.5 41.5 8.5M41.5 16.5C37 22.5 41.5 24.5 41.5 24.5M41.5 16.5C37 10.5 34.5 16.5 34.5 16.5M41.5 16.5C46 22.5 48.5 16.5 48.5 16.5" stroke="black"/>
<defs>
<filter id="filter0_f_1_9" x="29" y="3" width="25" height="27" filterUnits="userSpaceOnUse" color-interpolation-filters="sRGB">
<feFlood flood-opacity="0" result="BackgroundImageFix"/>
<feBlend mode="normal" in="SourceGraphic" in2="BackgroundImageFix" result="shape"/>
<feGaussianBlur stdDeviation="2" result="effect1_foregroundBlur_1_9"/>
</filter>
</defs>
</svg>
